<?xml version="1.0" encoding="UTF-8"?>
<svg width="16px" height="16px" viewBox="0 0 16 16" version="1.1" xmlns="http://www.w3.org/2000/svg" xmlns:xlink="http://www.w3.org/1999/xlink">
    <!-- Generator: Sketch 54.1 (76490) - https://sketchapp.com -->
    <title>chuchai</title>
    <desc>Created with Sketch.</desc>
    <g id="出差招待" stroke="none" stroke-width="1" fill="none" fill-rule="evenodd">
        <g id="工作计划" transform="translate(-68.000000, -143.000000)" fill="#4B77AF" stroke="#4B77AF">
            <g id="编组复制" transform="translate(10.000000, 144.000000)">
                <g id="chuchai" transform="translate(59.000000, 0.000000)">
                    <path d="M10.7807653,4.70222708 C10.767225,4.71576744 10.7616332,4.73517684 10.7659541,4.75377752 L12.5053597,12.3199537 L11.4012884,13.1486195 L8.22182105,7.36073696 C8.21343341,7.34548672 8.19834492,7.33501951 8.18110752,7.33257023 C8.1637777,7.33005163 8.14635546,7.33592066 8.13399352,7.34819017 L4.74203945,10.7402367 C4.72796764,10.7543085 4.72253763,10.7748039 4.72778279,10.7940284 L5.33774623,13.0256933 L4.53200204,13.8311833 L2.63249205,11.2986728 L2.62618399,11.2903776 C2.62311084,11.286126 2.61941381,11.282429 2.61525465,11.2792634 L-9.05941988e-14,9.30133018 L0.805004787,8.4913344 L3.03361961,9.1000501 C3.05275173,9.10527215 3.07331645,9.09986525 3.08741137,9.08577033 L6.47927301,5.69300753 C6.49154252,5.68073802 6.49731913,5.66322335 6.49489295,5.64598596 C6.49244367,5.62874856 6.48197646,5.61359075 6.46663379,5.60529554 L0.703382724,2.44167918 L1.82674785,1.3181292 L9.08235057,3.0530059 C9.10104367,3.05744233 9.12079967,3.05185058 9.13443246,3.03821779 L11.0254624,1.14718785 C11.6909506,0.48169967 12.6460547,-3.62376795e-13 13.2981874,-3.62376795e-13 C13.4867358,-3.62376795e-13 13.6235721,0.0414298224 13.7049067,0.122741337 C13.8649187,0.282776446 13.8659123,0.693909089 13.7073329,1.16992458 C13.5181606,1.73829645 13.1342704,2.34872202 12.6804602,2.80237049 L10.7807653,4.70222708 Z" id="路径"></path>
                </g>
            </g>
        </g>
    </g>
</svg>