<?xml version="1.0" encoding="UTF-8"?>
<svg width="16px" height="16px" viewBox="0 0 16 16" version="1.1" xmlns="http://www.w3.org/2000/svg" xmlns:xlink="http://www.w3.org/1999/xlink">
    <!-- Generator: Sketch 54.1 (76490) - https://sketchapp.com -->
    <title>chuchai置灰</title>
    <desc>Created with Sketch.</desc>
    <g id="出差招待" stroke="none" stroke-width="1" fill="none" fill-rule="evenodd" fill-opacity="0.5" stroke-opacity="0.5">
        <g id="工作回顾-置灰展示" transform="translate(-79.000000, -275.000000)" fill="#4B77AF" stroke="#4B77AF" stroke-width="0.5">
            <g id="chuchai" transform="translate(80.000000, 276.000000)">
                <g id="chuchai置灰" transform="translate(-0.000000, -0.000000)">
                    <path d="M11.0337442,4.80279517 L12.7854182,12.4223377 L11.3209052,13.5215347 L11.1821726,13.2689867 L8.12748666,7.70825542 L4.99872562,10.8371017 L5.6171828,13.0998425 L4.50493254,14.2117419 L4.33200685,13.9811897 L2.44258614,11.4621216 L-0.379062262,9.32809152 L0.730361876,8.21178901 L0.870875957,8.25016851 L2.99049389,8.82911319 L6.11907604,5.69969985 L0.291031054,2.50051622 L1.74885123,1.04245616 L1.88488613,1.07498327 L9.03456405,2.78453281 L10.8486857,0.97041116 C11.557068,0.262028902 12.5717125,-0.25 13.2981874,-0.25 C13.5467425,-0.25 13.7458027,-0.189877445 13.8816962,-0.0540225954 C14.1290241,0.193341038 14.1301925,0.69159054 13.9445394,1.24887447 C13.742832,1.8549082 13.3379429,2.49861246 12.8572444,2.97913966 L11.0337442,4.80279517 Z" id="路径"></path>
                </g>
            </g>
        </g>
    </g>
</svg>