<?xml version="1.0" encoding="UTF-8"?>
<svg width="20px" height="20px" viewBox="0 0 20 20" version="1.1" xmlns="http://www.w3.org/2000/svg" xmlns:xlink="http://www.w3.org/1999/xlink">
    <!-- Generator: Sketch 54.1 (76490) - https://sketchapp.com -->
    <title>dianhua</title>
    <desc>Created with Sketch.</desc>
    <g id="一版" stroke="none" stroke-width="1" fill="none" fill-rule="evenodd">
        <g id="工作计划-下看一层" transform="translate(-97.000000, -134.000000)" fill="#4B77AF">
            <g id="biaoti" transform="translate(0.000000, 114.000000)">
                <g id="dianhua" transform="translate(97.000000, 20.000000)">
                    <path d="M10,0 C4.47717603,0 0,4.47717603 0,10 C0,15.5229533 4.47717603,20 10,20 C15.5229533,20 20,15.5229533 20,10 C20,4.47717603 15.5229533,0 10,0 Z M10,19 C5.02969801,19 1,14.9702734 1,10 C1,5.02972656 5.02969801,1 10,1 C14.9701745,1 19,5.02972656 19,10 C18.9998725,14.9702734 14.9701745,19 10,19 Z M13,11 C12.0792629,11.4248973 11.7286375,11.8511448 11,12 C10.8918636,11.8511448 9.0627915,10.0077769 9,10 C9.0627915,9.10139025 9.47950896,8.87819111 9,8 C9.47950896,8.06971347 8.24582232,6 8,6 C7.23358844,6 6,6.92325716 6,8 C6,10.2547755 10.4651292,15 13,15 C14.0306987,15 14.9999842,14.1678568 15,13 C15.0064984,12.8656833 13.0019991,11.4248973 13,11 L13,11 Z" id="Fill-1"></path>
                </g>
            </g>
        </g>
    </g>
</svg>
