<?xml version="1.0" encoding="UTF-8"?>
<svg width="163px" height="163px" viewBox="0 0 163 163" version="1.1" xmlns="http://www.w3.org/2000/svg" xmlns:xlink="http://www.w3.org/1999/xlink">
    <!-- Generator: Sketch 54.1 (76490) - https://sketchapp.com -->
    <title>icon</title>
    <desc>Created with Sketch.</desc>
    <g id="新版" stroke="none" stroke-width="1" fill="none" fill-rule="evenodd">
        <g id="在线考勤-暂无数据" transform="translate(-106.000000, -182.000000)">
            <g id="icon" transform="translate(106.000000, 182.000000)">
                <ellipse id="椭圆形" fill="#E5F6FE" cx="88" cy="78.5" rx="75" ry="73"></ellipse>
                <g id="编组" transform="translate(0.000000, 0.500000)">
                    <g id="neirong" transform="translate(22.500000, 71.000000)">
                        <g id="编组-4" transform="translate(0.000000, 0.500000)">
                            <ellipse id="椭圆形" fill="#FFFFFF" cx="17.2994652" cy="14.4438503" rx="11.3315508" ry="11.2620321"></ellipse>
                            <ellipse id="椭圆形" stroke="#434D63" stroke-width="2" cx="14.7049564" cy="14.5151953" rx="12.9669885" ry="12.9323076"></ellipse>
                            <g id="编组-2" transform="translate(13.812834, 7.513369)" stroke="#D69470">
                                <path d="M1.18833086,-0.5 C2.23136376,-0.5 3.07690899,0.345545234 3.07690899,1.38857814 C3.07690899,1.48844136 3.06898824,1.58814728 3.05322182,1.6867544 C2.52707494,4.97755894 2.26454279,7.59361887 2.26454279,9.52932911 L2.26454279,10.0293291 L0.1868169,10.0293291 L0.1868169,9.52932911 C0.1868169,5.80706027 -0.0123739451,3.13357513 -0.403986134,1.52717314 C-0.618407359,0.647748279 -0.0792884007,-0.238976134 0.800146017,-0.45336658 C0.927216755,-0.484344162 1.05753872,-0.5 1.18833086,-0.5 Z" id="矩形" stroke-linejoin="round"></path>
                                <ellipse id="椭圆形" cx="1.30748663" cy="12.5614973" rx="1" ry="1"></ellipse>
                            </g>
                        </g>
                    </g>
                    <path d="M83,139.422649 C109.5109,144.231467 122.795828,137.307277 122.854784,118.650079 C122.854784,104.527858 122.854869,74.3111651 122.855039,28" id="路径-19" stroke="#FFFFFF" stroke-width="3"></path>
                    <g id="neirong" transform="translate(100.500000, 47.000000)">
                        <g id="编组-4" transform="translate(0.000000, 0.500000)">
                            <ellipse id="椭圆形" fill="#FFFFFF" cx="17.2994652" cy="14.4438503" rx="11.3315508" ry="11.2620321"></ellipse>
                            <ellipse id="椭圆形" stroke="#D69470" fill="#FFFFFF" cx="14.7049564" cy="14.5151953" rx="8.331551" ry="8.27736971"></ellipse>
                            <ellipse id="椭圆形" stroke="#434D63" stroke-width="2" cx="14.7049564" cy="14.5151953" rx="12.9669885" ry="12.9323076"></ellipse>
                            <rect id="矩形" fill="#434D63" transform="translate(28.000000, 25.844550) rotate(-45.000000) translate(-28.000000, -25.844550) " x="27" y="20.3445497" width="2" height="11" rx="1"></rect>
                        </g>
                    </g>
                    <path d="M15.7682975,34.8057488 C6.21766677,48.2010757 1,64.208028 1,81 C1,125.181398 37.0397048,161 81.5,161 C92.2580327,161 102.718126,158.902183 112.42843,154.882766 L15.7682665,34.8057089 Z M129.519024,145.214793 C149.791224,130.221808 162,106.625993 162,81 C162,36.8186023 125.960295,1 81.5,1 C64.4469696,1 48.1992508,6.2816268 34.6466432,15.9389221 L129.519042,145.214818 Z" id="形状" stroke="#434D63" stroke-width="2"></path>
                    <path d="M117,79.310459 L38,103.489877 C38,111.802931 38,112.190136 38,126 C38,129.865993 41.1340068,133 45,133 L110,133 C113.865993,133 117,129.865993 117,126 L117,79.310459 Z M38,66.5273069 L117,44.4830937 C117,41.6156147 117,41.2200651 117,36 C117,32.1340068 113.865993,29 110,29 L45,29 C41.1340068,29 38,32.1340068 38,36 C38,55.4447616 38,56.209544 38,66.5273069 Z" id="形状结合" stroke="#434D63" stroke-width="2"></path>
                    <rect id="矩形" fill="#FFFFFF" x="57.5" y="20" width="38" height="12" rx="2"></rect>
                    <g id="编组-5" transform="translate(54.500000, 21.500000)" fill="#434D63">
                        <rect id="矩形" x="0" y="36" width="12" height="2"></rect>
                        <rect id="矩形" x="18" y="36" width="26" height="2"></rect>
                        <rect id="矩形复制" x="0" y="58" width="10" height="2"></rect>
                        <rect id="矩形复制" x="14" y="58" width="16" height="2"></rect>
                        <rect id="矩形" x="33" y="58" width="11" height="2"></rect>
                        <rect id="矩形复制-2" x="0" y="80.5" width="46" height="2"></rect>
                        <rect id="矩形" stroke="#434D63" stroke-width="2" x="6" y="1.5" width="34" height="10" rx="2"></rect>
                    </g>
                </g>
            </g>
        </g>
    </g>
</svg>