<?xml version="1.0" encoding="UTF-8"?>
<svg width="12px" height="15px" viewBox="0 0 12 15" version="1.1" xmlns="http://www.w3.org/2000/svg" xmlns:xlink="http://www.w3.org/1999/xlink">
    <!-- Generator: Sketch 54.1 (76490) - https://sketchapp.com -->
    <title>考勤历史</title>
    <desc>Created with Sketch.</desc>
    <defs>
        <rect id="path-1" x="0" y="0" width="18" height="18"></rect>
    </defs>
    <g id="新版" stroke="none" stroke-width="1" fill="none" fill-rule="evenodd">
        <g id="在线考勤-打卡" transform="translate(-340.000000, -307.000000)">
            <g id="考勤历史" transform="translate(337.000000, 306.000000)">
                <g>
                    <mask id="mask-2" fill="white">
                        <use xlink:href="#path-1"></use>
                    </mask>
                    <g id="蒙版"></g>
                    <path d="M14.5,14.9230769 L14.5,3.07692308 C14.5,2.785515 14.232096,2.5 14,2.5 L4,2.5 C3.76795235,2.5 3.5,2.78555056 3.5,3.07692308 L3.5,14.9230769 C3.5,15.2145881 3.76786129,15.5 4,15.5 L14,15.5 C14.232187,15.5 14.5,15.2146236 14.5,14.9230769 Z" id="路径" stroke="#4B77AF" mask="url(#mask-2)"></path>
                    <rect id="矩形" fill="#4B77AF" mask="url(#mask-2)" x="5" y="1" width="1" height="3" rx="0.5"></rect>
                    <rect id="矩形复制" fill="#4B77AF" mask="url(#mask-2)" x="12" y="1" width="1" height="3" rx="0.5"></rect>
                    <rect id="矩形" fill="#FFA700" mask="url(#mask-2)" x="7" y="7" width="4" height="1" rx="0.5"></rect>
                    <rect id="矩形复制-2" fill="#FFA700" mask="url(#mask-2)" x="7" y="11" width="4" height="1" rx="0.5"></rect>
                </g>
            </g>
        </g>
    </g>
</svg>