<?xml version="1.0" encoding="UTF-8"?>
<svg width="12px" height="16px" viewBox="0 0 12 16" version="1.1" xmlns="http://www.w3.org/2000/svg" xmlns:xlink="http://www.w3.org/1999/xlink">
    <!-- Generator: Sketch 54.1 (76490) - https://sketchapp.com -->
    <title>zhaodai-hei</title>
    <desc>Created with Sketch.</desc>
    <g id="出差招待" stroke="none" stroke-width="1" fill="none" fill-rule="evenodd">
        <g id="招待回顾-二版列表" transform="translate(-20.000000, -102.000000)" stroke="#000000">
            <g id="weiqueren" transform="translate(0.000000, 74.000000)">
                <g id="zhaodai-hei" transform="translate(20.000000, 28.000000)">
                    <g id="zhaodai">
                        <path d="M1.84736838,4.71997129 C3.41963492,5.3596286 4.66531149,5.3596286 5.58439808,4.71997129 C6.96302797,3.76048533 7.79933979,3.01599608 10.1220201,3.9774867" id="路径-4" stroke-width="0.5" stroke-linecap="round"></path>
                        <path d="M10.7154305,4.92170893 L10.4452358,0.499076512 C10.4452768,0.499748342 10.4455453,0.5 10.4452244,0.5 L1.61042975,0.5 C1.6105615,0.5 1.60988165,0.500632096 1.60995627,0.499620862 L1.28455568,4.9389069 C1.28455568,7.37015834 3.14380497,9.40298213 5.54856578,9.63334597 L6.00086275,9.67667372 L6.00086275,9.67452108 L6.45352662,9.63147302 C8.85623945,9.40297648 10.7095905,7.3716245 10.7154305,4.92170893 Z M6.00088659,15.5 L6.00088659,15.5017743 L6.00086275,15.5017743 L6.00086275,15.5 L6.00088659,15.5 Z" id="路径"></path>
                    </g>
                </g>
            </g>
        </g>
    </g>
</svg>