<?xml version="1.0" encoding="UTF-8"?>
<svg width="12px" height="16px" viewBox="0 0 12 16" version="1.1" xmlns="http://www.w3.org/2000/svg" xmlns:xlink="http://www.w3.org/1999/xlink">
    <!-- Generator: Sketch 54.1 (76490) - https://sketchapp.com -->
    <title>zhaodai</title>
    <desc>Created with Sketch.</desc>
    <g id="出差招待" stroke="none" stroke-width="1" fill="none" fill-rule="evenodd" fill-opacity="0.5">
        <g id="工作回顾-置灰展示" transform="translate(-105.000000, -275.000000)" fill="#4B77AF">
            <g id="zhaodai" transform="translate(105.784556, 275.000000)">
                <path d="M10.4308875,4.90665829 L10.1597479,0.468558589 C10.1436123,0.204690018 9.92453725,0 9.66066868,0 L0.825874066,0 C0.563755942,0 0.346521058,0.202849805 0.326727549,0.463217483 L-5.15143483e-14,4.9389069 C-5.15143483e-14,7.6462864 2.07356083,9.87790356 4.71633091,10.1310675 L4.71633091,15.0017743 L2.94256769,15.0017743 C2.66608692,15.0017743 2.44342117,15.2261905 2.44342117,15.5008535 C2.44342117,15.7773342 2.66783737,16 2.94256769,16 L7.54397506,16 C7.82045582,16 8.04303181,15.7755838 8.04303181,15.5008535 C8.04303181,15.2243503 7.8186156,15.0017743 7.54397506,15.0017743 L5.71630706,15.0017743 L5.71630706,10.1292273 C8.3590547,9.87790356 10.432638,7.64269574 10.4308875,4.90665829 Z" id="路径"></path>
            </g>
        </g>
    </g>
</svg>